<svg width="40" height="40" viewBox="0 0 40 40" fill="none" xmlns="http://www.w3.org/2000/svg">
<path fill-rule="evenodd" clip-rule="evenodd" d="M2.74972 17.6368C13.4877 12.8386 20.6477 9.67535 24.2297 8.14701C34.4577 3.78333 36.5837 3.02531 37.9697 3.00027C38.2737 2.99477 38.9557 3.07223 39.3957 3.43949C39.7697 3.74961 39.8717 4.16853 39.9197 4.46257C39.9697 4.75659 40.0297 5.42639 39.9817 5.94975C39.4277 11.9233 37.0297 26.4196 35.8097 33.11C35.2917 35.941 34.2757 36.8902 33.2917 36.9832C31.1537 37.185 29.5277 35.5334 27.4577 34.1404C24.2157 31.961 22.3837 30.6042 19.2377 28.4774C15.6017 26.0194 17.9577 24.6686 20.0297 22.4608C20.5737 21.883 29.9977 13.0909 30.1797 12.2934C30.2017 12.1936 30.2237 11.8218 30.0077 11.6255C29.7937 11.4291 29.4757 11.4963 29.2457 11.5497C28.9197 11.6253 23.7417 15.1361 13.7097 22.082C12.2397 23.1174 10.9077 23.6218 9.71572 23.5954C8.39972 23.5662 5.86971 22.8326 3.98971 22.2056C1.68371 21.4366 -0.15027 21.03 0.0097296 19.724C0.0917296 19.0436 1.00572 18.3479 2.74972 17.6368Z" fill="white"/>
</svg>
