<svg width="324" height="399" viewBox="0 0 324 399" fill="none" xmlns="http://www.w3.org/2000/svg">
<path fill-rule="evenodd" clip-rule="evenodd" d="M193.527 40.1943L130.893 332.255L129.239 332.547L192.687 37.4762L193.527 40.1943Z" fill="white"/>
<path fill-rule="evenodd" clip-rule="evenodd" d="M129.239 332.547L130.893 332.255L221.193 361.756L220.851 363.339L129.211 332.676L129.239 332.547Z" fill="white"/>
<path fill-rule="evenodd" clip-rule="evenodd" d="M193.527 40.1943L192.687 37.4762L288.496 49.8875L288.041 51.9947L193.527 40.1943Z" fill="white"/>
<path fill-rule="evenodd" clip-rule="evenodd" d="M171.576 36.8227L171.213 38.5085L91.799 28.3938L90.1175 26.4538L171.576 36.8227Z" fill="white"/>
<path fill-rule="evenodd" clip-rule="evenodd" d="M90.1175 26.4538L91.799 28.3938L33.3681 298.539L30.846 299.114L90.1175 26.4538Z" fill="white"/>
<path fill-rule="evenodd" clip-rule="evenodd" d="M30.846 299.114L33.3681 298.539L109.791 324.247L109.429 325.933L30.846 299.114Z" fill="white"/>
<path d="M193.527 40.1943L130.893 332.255M193.527 40.1943L192.687 37.4762M193.527 40.1943L288.041 51.9947M130.893 332.255L129.239 332.547M130.893 332.255L221.193 361.756M129.239 332.547L192.687 37.4762M129.239 332.547L129.211 332.676L220.851 363.339M129.239 332.547L123.747 333.519M192.687 37.4762L288.496 49.8875M192.687 37.4762L187.642 36.8227M221.193 361.756L220.851 363.339M221.193 361.756L288.041 51.9947M220.851 363.339L220.283 365.97M288.496 49.8875L288.041 51.9947M288.496 49.8875L288.95 47.7803M171.576 36.8227L171.213 38.5085M171.576 36.8227L90.1175 26.4538M171.576 36.8227L172.029 34.7155M171.213 38.5085L91.799 28.3938M171.213 38.5085L109.791 324.247M91.799 28.3938L90.1175 26.4538M91.799 28.3938L33.3681 298.539M90.1175 26.4538L30.846 299.114M90.1175 26.4538L85.4935 25.8652L27.483 299.88M33.3681 298.539L30.846 299.114M33.3681 298.539L109.791 324.247M30.846 299.114L109.429 325.933M30.846 299.114L27.483 299.88M109.791 324.247L109.429 325.933M109.429 325.933L109.112 327.408M318.376 28.3938L323 32.6083L243.971 395.893L238.507 398M318.376 28.3938L238.507 398M318.376 28.3938L68.6789 1M318.376 28.3938L307.026 35.9798M238.507 398L1 314.133M238.507 398L231.781 387.464M1 314.133L68.6789 1M1 314.133L8.56658 309.497M68.6789 1L73.3029 9.00743M307.026 35.9798L231.781 387.464M307.026 35.9798L175.031 20.7473M307.026 35.9798L288.95 47.7803M231.781 387.464L105.671 343.415M231.781 387.464L220.01 367.235M8.56658 309.497L73.3029 9.00743M8.56658 309.497L105.671 343.415M8.56658 309.497L24.1201 300.646M73.3029 9.00743L175.031 20.7473M73.3029 9.00743L83.3916 22.9151M105.671 343.415L121.225 334.362M105.671 343.415L108.795 328.883M175.031 20.7473L185.54 34.7155M175.031 20.7473L172.029 34.7155M185.54 34.7155L288.95 47.7803M185.54 34.7155L121.225 334.362M185.54 34.7155L187.642 36.8227M220.01 367.235L121.225 334.362M220.01 367.235L220.283 365.97M121.225 334.362L123.747 333.519M108.795 328.883L24.1201 300.646M108.795 328.883L109.112 327.408M24.1201 300.646L83.3916 22.9151M24.1201 300.646L27.483 299.88M83.3916 22.9151L172.029 34.7155M27.483 299.88L109.112 327.408M187.642 36.8227L123.747 333.519M123.747 333.519L220.283 365.97M257.003 210.458L258.264 204.557C258.404 203.413 259.357 201.306 262.047 202.029C264.737 202.751 264.849 204.858 264.569 205.822L261.693 220.238M257.003 210.458C256.302 210.598 254.733 211.553 254.06 214.251C253.387 216.948 250.137 231.951 248.595 239.116C248.493 239.678 248.601 240.886 249.856 241.223C251.111 241.56 251.5 239.959 251.538 239.116L255.742 221.837M257.003 210.458C257.563 209.896 259.104 209.025 260.786 210.036C262.888 211.3 261.627 216.358 258.684 215.515L257.423 215.093L255.742 221.837M255.742 221.837C257.305 222.878 260.684 224.016 261.693 220.238M261.627 220.572L261.693 220.238" stroke="white"/>
</svg>
