<svg width="272" height="313" viewBox="0 0 272 313" fill="none" xmlns="http://www.w3.org/2000/svg">
<g clip-path="url(#clip0_567_6138)">
<path d="M41.916 291.593V298.493L204.247 313.09M41.916 291.593L204.247 305.748M41.916 291.593L56.5069 285.733V82.4071C56.5069 61.2028 78.098 6.84238 131.704 0.29248C203.991 2.87413 214.222 67.8479 214.222 82.3462M204.247 313.09V305.748M204.247 313.09L218.224 303.271V296.017M204.247 305.748L218.224 296.017M218.224 296.017L214.639 295.473L214.222 82.3462M214.224 82.4071C214.223 82.3869 214.223 82.3666 214.222 82.3462" stroke="white" stroke-width="0.605416"/>
<path d="M214.775 295.46L210.523 298.344M210.523 298.344L204.07 297.22M210.523 298.344V81.7501C210.523 64.7692 201.574 25.6267 166.883 7.96592M204.07 297.22V86.3265C204.07 60.5939 186.34 7.96592 131.947 7.146C81.6808 12.4068 61.7782 62.416 61.594 92.1202V285.644M204.07 297.22C148.43 292.699 117.234 290.165 61.594 285.644M61.594 285.644H56.5879" stroke="white" stroke-width="0.605416"/>
<path d="M203.938 296.059L194.167 284.608M194.167 284.608V206.161M194.167 284.608L69.7994 275.63M194.167 174.534V112.488M69.7994 275.63L61.75 284.518M69.7994 275.63V115.464M69.7994 105.613V90.4231C69.7994 66.3088 86.6004 20.8477 132.743 16.8364C177.21 18.7287 193.326 56.0467 194.167 77.6768V101.918M69.7994 105.613L194.167 101.918M69.7994 105.613V115.464M69.7994 105.613L74.7085 102.524M194.167 101.918V112.488M194.167 101.918L191.898 99.2159M194.167 112.488L69.7994 115.464M191.898 99.2159C146.133 100.508 120.474 101.232 74.7085 102.524M191.898 99.2159C191.898 90.1471 191.898 84.7481 191.018 72.9686C190.138 61.189 174.547 21.1555 132.743 21.8297C86.3952 27.1076 73.4384 75.784 74.7085 102.524" stroke="white" stroke-width="0.605416"/>
<path d="M76.2395 119.332L190.956 116.704M76.2395 119.332L75.9771 271.104M76.2395 119.332L70.1505 115.661M190.956 116.704C190.956 140.104 190.972 153.876 190.972 177.277M190.956 116.704L194.093 112.531M190.956 205.928V280.04M190.956 280.04L75.9771 271.104M190.956 280.04L194.051 284.463M75.9771 271.104L69.959 275.408" stroke="white" stroke-width="0.605416"/>
<path d="M85.7679 271.544V228.427L76.2311 228.027M76.2311 225.629L85.7679 226.016V194.06L76.2012 193.643M76.2012 190.632L85.7679 191.079L85.5302 160.375H76.2593M76.2593 159.003L85.5302 159.152C85.5302 150.44 85.7248 139.12 102.109 127.076C106.817 131.296 116.342 140.987 116.772 145.992C118.499 141.691 123.898 131.964 131.68 127.467C136.47 130.758 146.323 138.846 147.418 144.868C149.455 141.039 155.444 132.12 163.108 127.076C172.339 135.622 180.601 138.689 180.601 158.779H190.872M190.872 160.021H180.601V193.061L190.186 193.403M190.186 196.287L180.601 195.994V229.28L190.822 229.817M190.822 232.946L180.601 232.31V279.184" stroke="white" stroke-width="0.605416"/>
<path d="M177.333 278.891V267.307L149.001 265.664V276.632M145.99 276.632V265.303L118.453 263.735V274.253M115.52 274.011V263.458L88.5788 261.52V271.834M88.5788 160.254V160.547M88.5788 160.547V191.004L115.52 191.513V160.136L88.5788 160.547ZM177.333 263.885V232.306L149.001 231.293V262.675L177.333 263.885ZM177.333 229.329V195.701L149.001 195.08V228.314L177.333 229.329ZM177.333 192.67V159.971L149.001 160.136V192.242L177.333 192.67ZM177.333 158.749C177.333 146.638 178.069 143.133 163.077 130.895C157.228 136.06 146.617 143.571 149.001 158.749H177.333ZM145.99 262.675V231.131L118.453 230.004V260.735L145.99 262.675ZM145.99 228.314V195.08L118.453 194.767V227.125L145.99 228.314ZM145.99 192.242V160.136H118.709L118.453 191.675L145.99 192.242ZM145.99 158.749C145.99 149.204 145.99 140.191 131.846 130.895C127.027 133.87 117.075 143.634 118.709 158.749H145.99ZM115.52 260.507V230.004L88.5788 228.64V258.718L115.52 260.507ZM115.52 226.97V194.767L88.5788 194.12V226.076L115.52 226.97ZM115.52 158.749C115.795 149.414 113.156 139.736 102.118 131.304C97.0899 133.704 87.3084 142.552 88.41 158.749H115.52Z" stroke="white" stroke-width="0.605416"/>
<path d="M100.377 118.849V128.209M103.299 118.849V128.209" stroke="white" stroke-width="0.605416"/>
<path d="M130.686 118.164V128.209M133.607 118.164V128.776" stroke="white" stroke-width="0.605416"/>
<path d="M162.293 117.372V127.592M165.215 117.372V128.942" stroke="white" stroke-width="0.605416"/>
<path d="M86.7617 119.012V147.459M104.992 129.734L128.785 129.426" stroke="white" stroke-width="0.605416"/>
<path d="M86.7617 119.012V147.459M134.39 129.403L160.372 129.081" stroke="white" stroke-width="0.605416"/>
<path d="M86.7617 119.012V147.459M165.337 129.024L190.864 128.805" stroke="white" stroke-width="0.605416"/>
<path d="M86.762 119.012V147.459M76.3516 130.156L98.4691 129.879" stroke="white" stroke-width="0.605416"/>
<path d="M117.066 118.522V145.063M147.665 117.789V144.134M180.169 117.056V151.611" stroke="white" stroke-width="0.605416"/>
<path d="M101.994 101.61V79.444M101.994 75.4417V55.2839M163.772 99.7629V76.5706M163.772 72.671V50.1615M161.617 47.7341L148.481 49.1708M116.874 50.7101L104.149 51.6337M132.78 24.2339V41.7821" stroke="white" stroke-width="0.605416"/>
<path d="M197.001 181.123C196.876 182.375 197.176 184.878 199.379 184.878C201.582 184.878 202.091 183.001 202.071 182.062V171.485C201.904 170.108 200.931 167.341 198.378 167.291C195.824 167.241 195.311 171.944 195.374 174.301M198.378 180.31L195.812 181.624C194.185 187.006 196.438 205.157 195.812 205.72C195.187 206.283 192.056 206.158 191.243 206.096C190.429 206.033 190.178 198.022 190.241 193.39C190.304 188.759 189.803 178.182 191.681 175.616C193.725 174.13 197.293 174.531 198.879 174.99" stroke="white" stroke-width="0.605416"/>
<path d="M74.9492 91.0634C77.5131 83.4232 85.927 64.889 99.0713 51.8738C97.7085 50.5199 94.2569 47.3988 91.3528 45.7465M172.723 38.3298C171.184 39.2274 165.884 43.4055 163.427 45.3823C161.022 44.1802 157.336 41.295 151.245 34.4829C145.154 27.6708 140.987 21.4999 131.851 22.0609C122.714 22.6219 114.219 36.4865 111.895 39.4517C110.036 41.824 104.068 47.1721 101.316 49.5497C99.6851 48.0316 95.8591 44.6199 93.606 43.1179M175.608 40.9745C174.192 41.5622 170.367 43.7154 166.392 47.6263C172.777 53.1027 186.78 68.3351 191.717 85.4535M191.245 99.0268C187.412 92.4308 176.577 78.7052 163.907 76.5707C158.594 77.1522 145.629 82.7895 136.27 100.687M128.011 100.687C123.627 94.0061 112.36 80.3885 102.358 79.3627C98.0573 80.5648 86.8925 86.9833 77.4036 102.371M148.672 63.6233C152.493 57.8526 156.829 52.2802 161.583 47.6263C159.366 46.2906 153.842 42.353 149.482 37.288C150.203 39.5052 150.844 45.3182 147.639 50.832C148.755 53.4023 150.525 59.5589 148.672 63.6233ZM148.672 63.6233C146.662 66.6593 144.794 69.7501 143.083 72.791M143.083 72.791C137.696 82.3643 133.86 91.4424 132.011 96.7535C128.42 87.3111 123.945 78.9582 119.522 72.0325M143.083 72.791C139.615 76.2657 130.047 80.9787 119.522 72.0325M119.522 72.0325C118.302 70.1227 117.086 68.3214 115.894 66.6357M115.894 66.6357C110.988 59.6996 106.483 54.7209 103.745 52.193C108.402 48.1874 113.238 42.8049 115.073 40.6144C114.158 46.2567 116.42 50.6844 117.665 52.193C116.484 54.4746 114.477 60.5574 115.894 66.6357ZM101.316 54.7589C95.7599 59.888 83.1401 75.3234 77.1134 96.0322C81.4411 90.9031 92.4526 79.5549 101.877 75.1952C106.125 75.863 117.152 80.6609 127.282 94.5095C123.062 84.6787 111.959 62.9655 101.316 54.7589ZM190.755 93.4677C189.179 85.0528 181.603 64.5844 163.907 50.0306C157.63 56.5755 143.648 73.913 137.941 90.9031C142.055 85.7206 153.008 74.8426 163.907 72.791C169.598 74.2603 182.933 80.4526 190.755 93.4677ZM119.522 49.5497C120.96 46.9317 125.616 41.6798 132.732 41.6157C139.849 41.5515 144.139 45.5961 145.395 47.6263C147.692 41.8561 148.376 29.0654 132.732 24.0645C125.929 26.3619 113.762 34.6752 119.522 49.5497ZM133.196 45.3823C137.791 45.6495 146.292 49.0368 145.395 60.4491C144.497 71.8613 135.457 74.0733 131.049 73.7527C126.824 73.5924 118.489 70.4829 118.948 59.3271C119.33 50.0306 129.091 45.3823 133.196 45.3823Z" stroke="white" stroke-width="0.605416"/>
<path d="M191.58 281.3L74.799 272.064V118.572L76.0964 119.462V271.189L76.1999 271.119L190.968 280.121L191.58 281.3Z" fill="white"/>
<path d="M73.6411 103.063C72.4176 88.4442 76.7477 54.7358 101.164 35.0388C101.802 34.5083 102.412 34.0361 102.987 33.6226C102.367 34.086 101.759 34.5582 101.164 35.0388C91.0657 43.4291 73.8228 66.3882 74.799 102.091L73.6411 103.063Z" fill="white"/>
<path d="M74.799 272.064L191.58 281.3L190.968 280.121L76.1999 271.119L76.0964 271.189M74.799 272.064V118.572L76.0964 119.462V271.189M74.799 272.064L76.0964 271.189M73.6411 103.063C72.3878 88.0875 76.9623 53.0795 102.987 33.6226C93.3188 40.5769 73.7611 64.1309 74.799 102.091L73.6411 103.063Z" stroke="white" stroke-width="0.605416"/>
</g>
<defs>
<clipPath id="clip0_567_6138">
<rect width="272" height="313" fill="white"/>
</clipPath>
</defs>
</svg>
