<svg width="272" height="313" viewBox="0 0 272 313" fill="none" xmlns="http://www.w3.org/2000/svg">
<g clip-path="url(#clip0_567_5851)">
<path d="M0.589844 48.2571V43.4589L199.257 1.18359M0.589844 48.2571L199.257 6.50044M0.589844 48.2571L17.9865 51.6163M199.257 6.50044L271.359 30.102M199.257 6.50044V1.18359M271.359 30.102V25.9523L199.257 1.18359M271.359 30.102L261.406 31.052" stroke="white" stroke-width="0.605791"/>
<path d="M261.525 30.8081V33.2801L260.513 32.9282M260.513 32.9282L200.076 12.1973L17.9863 49.162V196.597L199.637 212.172L260.513 201.82V32.9282Z" stroke="white" stroke-width="0.605791"/>
<path d="M3.23828 198.591V201.82L196.977 221.004M3.23828 198.591L196.977 216.92M3.23828 198.591L18.0787 196.624M196.977 221.004L268.204 207.234V203.055M196.977 221.004V216.92M268.204 203.055L260.607 201.63M268.204 203.055L196.977 216.92" stroke="white" stroke-width="0.605791"/>
<path d="M196.672 312.681L9.28906 270.536V262.971L196.672 301.713M196.672 312.681L265.811 282.161V272.909L196.672 301.713M196.672 312.681V301.713" stroke="white" stroke-width="0.605791"/>
<path d="M264.797 207.938V273.205M260.569 275.06V208.903M254.709 209.941V277.507M248.183 280.251V211.35M241.211 212.463V282.995M234.017 286.036V214.094M226.304 215.503V289.3M218.146 292.711V216.987M209.616 218.693V296.123M201.457 299.535V220.25M196.736 221.039V301.663M190.556 220.621V300.276M182.025 298.645V219.583M173.794 218.693V296.865M163.039 294.64V217.877M152.062 216.542V292.34M141.234 290.041V215.652M131.295 214.613V288.039M121.357 286.036V213.575M111.716 212.685V284.108M102 281.957V211.795M92.9514 210.757V280.103M83.9772 209.793V278.323M75.2998 276.469V209.125M66.8448 208.235V274.689M58.3892 273.057V207.271M50.3799 206.529V271.277M42.4434 269.72V205.936M34.8042 205.12V268.088M27.1653 266.604C27.1653 242.246 27.1653 228.589 27.1653 204.23M20.0031 203.492V264.946M13.6899 263.73V202.913M9.86719 202.507V262.977" stroke="white" stroke-width="0.605791"/>
<path d="M200.111 12.2603V211.982" stroke="white" stroke-width="0.605791"/>
<path d="M26.4062 192.508V53.7637L69.4235 44.5068V196.101L26.4062 192.508Z" stroke="white" stroke-width="0.605791"/>
<path d="M124.454 200.357C104.743 198.755 93.5771 197.857 73.8652 196.255V43.9161L124.454 34.1172V200.357Z" stroke="white" stroke-width="0.605791"/>
<path d="M190.416 205.472L131.197 200.656V130.653V33.0408L190.416 22.0142V205.472Z" stroke="white" stroke-width="0.605791"/>
<path d="M260.377 197.362L205.867 205.831V14.4346" stroke="white" stroke-width="0.605791"/>
<path d="M29.7031 187.993L66.9162 190.494M29.7031 187.993L29.6027 57.2437M29.7031 187.993L26.4958 192.443M66.9162 190.494V50.1411M66.9162 190.494L69.392 195.431M66.9162 50.1411L29.6027 57.2437M66.9162 50.1411L69.4386 45.1772M29.6027 57.2437L26.4492 53.8125" stroke="white" stroke-width="0.605791"/>
<path d="M77.7723 191.275L121.926 194.432M77.7723 191.275V48.2132M77.7723 191.275L74.0645 196.035M121.926 194.432V40.0175M121.926 194.432L124.39 200.134M121.926 40.0175L77.7723 48.2132M121.926 40.0175L124.293 34.1909M77.7723 48.2132L74.1589 44.1154" stroke="white" stroke-width="0.605791"/>
<path d="M135.273 195.329L186.161 198.802M135.273 195.329L135.734 37.5688M135.273 195.329L131.328 200.598M186.161 198.802V27.7854M186.161 198.802L190.381 205.381M186.161 27.7854L135.734 37.5688M186.161 27.7854L190.232 22.27M135.734 37.5688L131.466 33.1039" stroke="white" stroke-width="0.605791"/>
<path d="M66.8246 189.876L30.9766 187.262L31.0229 57.64L66.8242 50.9185V51.712L31.8631 58.1067V186.982L66.8246 189.362V189.876Z" fill="white"/>
<path d="M30.9766 187.262L66.8246 189.876V189.362L31.8631 186.982V58.1067L66.8242 51.712V50.9185L31.0229 57.64M30.9766 187.262L31.0229 57.64M30.9766 187.262L29.9 187.914M31.0229 57.64L29.7793 57.3832" stroke="white" stroke-width="0.605791"/>
<path d="M121.723 193.308L79.1892 190.55L79.2358 48.665L121.843 40.9077V41.7012L80.076 49.1318L80.0757 190.27L121.723 192.794V193.308Z" fill="white"/>
<path d="M79.1892 190.55L121.723 193.308V192.794L80.0757 190.27L80.076 49.1318L121.843 41.7012V40.9077L79.2358 48.665M79.1892 190.55L79.2358 48.665M79.1892 190.55L78.1126 191.202M79.2358 48.665L77.9922 48.4082" stroke="white" stroke-width="0.605791"/>
<path d="M186.019 197.738L136.628 194.332L137.069 38.2189L186.096 29.0332V29.8267L137.893 38.8075L137.515 194.052L186.019 197.225V197.738Z" fill="white"/>
<path d="M136.628 194.332L186.019 197.738V197.225L137.515 194.052L137.893 38.8075L186.096 29.8267V29.0332L137.069 38.2189M136.628 194.332L137.069 38.2189M136.628 194.332L135.406 195.222M137.069 38.2189L135.891 37.6891" stroke="white" stroke-width="0.605791"/>
<path d="M208.195 200.101L256.548 192.931M208.195 200.101V22.1586M208.195 200.101L205.918 205.718M256.548 192.931V38.0321M256.548 192.931L260.403 197.232M256.548 38.0321L208.195 22.1586M256.548 38.0321L260.478 33.2112M208.195 22.1586L206.107 16.3506" stroke="white" stroke-width="0.605791"/>
<path d="M255.181 38.8688L208.27 23.2705V24.675L254.691 40.1445V191.283L208.357 197.481V198.035L255.181 191.8V38.8688Z" fill="white"/>
<path d="M255.181 38.8688L208.27 23.2705V24.675L254.691 40.1445V191.283L208.357 197.481V198.035L255.181 191.8M255.181 38.8688V191.8M255.181 38.8688L256.462 38.0178M255.181 191.8L256.442 192.797" stroke="white" stroke-width="0.605791"/>
</g>
<defs>
<clipPath id="clip0_567_5851">
<rect width="272" height="313" fill="white"/>
</clipPath>
</defs>
</svg>
