<svg width="692" height="320" viewBox="0 0 692 320" fill="none" xmlns="http://www.w3.org/2000/svg">
<path d="M182.598 68.6018L217.999 79.9832C220.366 80.6097 224.641 83.5123 222.803 90.1114C220.505 98.3602 196.487 169.05 175.184 203.716C173.026 207.231 165.806 212.403 154.194 204.969C142.582 197.534 129.932 193.935 125.059 193.065" stroke="white"/>
<path d="M613.002 21.7922L500.388 74.2659C525.179 103.846 579.367 222.825 565.075 227.997C563.106 228.71 559.262 224.06 551.012 208.312" stroke="white"/>
<path d="M609.67 208.459L564.889 228.102" stroke="white"/>
<path d="M502.075 76.5071L465.99 93.2074C478.241 114.489 503.582 164.604 505.467 198.422L469.447 213.278" stroke="white"/>
<path d="M563.197 202.193C556.445 205.851 538.64 214.007 521.435 217.361C518.937 218.075 513.262 218.378 510.549 213.882C507.836 209.385 503.529 202.55 501.715 199.695" stroke="white"/>
<path d="M467.084 95.0379C462.62 97.0513 447.955 99.5479 424.999 93.4272C396.305 85.7762 362.376 68.4611 345.764 71.4812C329.151 74.5012 332.82 74.739 316.689 78.2874C300.558 81.8359 299.107 81.5133 293.461 85.0617C287.815 88.6101 286.363 99.7392 279.427 111.03C273.878 120.062 266.899 130.815 264.103 135.062C266.2 141.191 274.523 151.611 291.041 144.256C304.545 138.243 312.598 126.711 316.689 118.549M320.077 109.739C319.91 110.855 318.854 114.231 316.689 118.549M316.689 118.549C323.573 118.936 339.024 118.714 345.764 114.725" stroke="white"/>
<path d="M342.646 116.203C375.561 136.254 449.097 182.644 469.795 214.783C480.665 231.661 461.225 259.779 420.126 221.465L369.545 178.485" stroke="white"/>
<path d="M444.05 238.237C443.305 249.525 436.332 269.966 414.404 261.421C403.917 257.334 388.815 240.307 377.801 232.606C368.99 226.446 356.96 217.453 352.047 213.727" stroke="white"/>
<path d="M412.305 260.265C410.037 270.026 400.659 286.921 381.288 276.406C370.524 270.564 360.648 260.957 350.27 253.117C341.968 246.845 328.824 239.435 323.289 236.515" stroke="white"/>
<path d="M381.562 276.285C380.482 282.678 372.625 295.781 353.395 287.85C344.739 284.28 338.801 281.323 332.637 276.285" stroke="white"/>
<path d="M339.727 281.387C337.018 285.879 327.491 293.708 311.061 289.088C303.681 285.237 299.081 279.89 300.044 272.51C302.326 270.62 307.168 265.622 308.28 260.745C309.671 254.649 312.024 247.59 317.907 249.515C323.79 251.44 337.695 266.413 331.17 281.387" stroke="white"/>
<path d="M316.514 249.088C316.942 244.703 315.872 234.992 308.171 231.227C298.544 226.521 294.801 229.623 287.848 235.291C282.286 239.826 275.476 249.943 272.766 254.435C270.591 257.751 268.53 266.264 277.686 273.794C286.842 281.323 297.358 275.296 301.675 271.018" stroke="white"/>
<path d="M287.178 235.848C289.855 228.033 281.115 206.193 260.744 217.541C237.632 235.848 242.56 251.179 252.135 258.157C260.744 265.068 269.676 259.512 272.004 255.856" stroke="white"/>
<path d="M242.19 210.969C250.447 215.699 249.716 225.84 248.318 230.319C242.405 241.821 224.558 241.176 220.687 223.976C216.817 206.776 231.869 205.056 242.19 210.969Z" stroke="white"/>
<path d="M222.315 211.261L183.014 189.724" stroke="white"/>
<path d="M287.991 92.3966C273.799 96.1236 239.506 100.795 222.39 91.2484" stroke="white"/>
<path d="M67.0003 10.459C91.7348 24.3491 136.54 47.1142 183.178 67.0537C182.982 67.6536 182.779 68.2705 182.567 68.904C172.012 100.531 142.188 173.366 101.964 226.65L65.667 209.792" stroke="white"/>
<path d="M104.027 198.178C104.671 196.624 105.003 194.957 105.003 193.274C105.003 191.591 104.671 189.925 104.027 188.37C103.383 186.815 102.439 185.402 101.249 184.212C100.058 183.022 98.6456 182.079 97.0906 181.434C95.5356 180.79 93.869 180.459 92.1858 180.459C90.5027 180.459 88.8361 180.79 87.2811 181.434C85.7261 182.079 84.3132 183.022 83.1231 184.212C81.9329 185.402 80.9889 186.815 80.3448 188.37C79.7007 189.925 79.3691 191.591 79.3691 193.274C79.3691 194.957 79.7007 196.624 80.3448 198.178C80.9889 199.733 81.9329 201.146 83.1231 202.336C84.3132 203.526 85.7261 204.47 87.2811 205.114C88.8361 205.758 90.5027 206.089 92.1858 206.089C93.869 206.089 95.5356 205.758 97.0906 205.114C98.6456 204.47 100.058 203.526 101.249 202.336C102.439 201.146 103.383 199.733 104.027 198.178Z" stroke="white"/>
<path d="M148.931 170.764C143.851 176.152 134.882 187.673 139.639 190.646C144.396 193.619 147.816 178.63 148.931 170.764Z" stroke="white"/>
<path d="M550.859 168.485L626.333 134.459" stroke="white"/>
</svg>
