<svg width="692" height="320" viewBox="0 0 692 320" fill="none" xmlns="http://www.w3.org/2000/svg">
<circle cx="368.126" cy="106.099" r="53.3333" stroke="white"/>
<circle cx="367.46" cy="105.432" r="44.6667" stroke="white"/>
<path d="M399.578 114.039C401.175 108.077 401.082 101.789 399.308 95.8769C397.535 89.9652 394.151 84.6638 389.535 80.5661" stroke="white"/>
<rect x="446.008" y="237.41" width="13.9083" height="36.9283" rx="6.95417" transform="rotate(-92.4243 446.008 237.41)" stroke="white"/>
<rect x="432.82" y="223.957" width="16.3102" height="45.0514" rx="8.15509" transform="rotate(-92.4243 432.82 223.957)" stroke="white"/>
<rect x="421.574" y="206.764" width="16.3102" height="49.5136" rx="8.15509" transform="rotate(-90.4111 421.574 206.764)" stroke="white"/>
<rect x="416.127" y="187.691" width="17.9066" height="41.9226" rx="8.95329" transform="rotate(-85.4355 416.127 187.691)" stroke="white"/>
<path d="M401.461 147.433L414.496 157.776" stroke="white"/>
<path d="M436.327 154.719C436.327 154.719 432.028 151.157 428.653 148.4C425.425 145.763 421.991 147.342 420.933 148.782L415.379 155.409C413.281 158.492 414.495 161.203 415.93 162.539L425.65 170.485M460.427 174.549L507.51 213.417C508.581 214.364 510.682 217.377 508.371 220.29C506.108 223.144 503.417 226.417 502.212 227.522C501.168 228.686 498.55 230.493 494.814 227.522C491.046 224.525 481.581 216.954 477.58 213.417" stroke="white"/>
<path d="M410.793 137.433L422.793 147.433" stroke="white"/>
<path d="M625.953 225.91L567.46 202.099L540.127 272.766L626.013 311.194" stroke="white"/>
<path d="M542.793 265.432L528.793 259.432L552.126 200.766L565.46 206.099" stroke="white"/>
<path d="M550.792 204.099C545.236 202.099 533.325 197.432 530.125 194.766C526.125 191.432 501.458 164.766 490.792 160.766C480.125 156.766 470.792 156.766 463.458 155.432C456.125 154.099 440.792 148.099 438.792 149.432C436.792 150.766 431.458 161.432 447.458 169.432C463.458 177.432 476.794 177.432 479.46 179.432" stroke="white"/>
<path d="M472.127 177.433C472.127 179.21 472.66 183.433 474.794 186.099" stroke="white"/>
<path d="M454.793 237.433C459.682 240.321 473.193 246.366 488.126 247.433C506.793 248.766 516.793 246.099 520.793 247.433C523.993 248.499 529.237 250.988 531.46 252.099" stroke="white"/>
<path d="M126.387 244.7L152.475 200.725" stroke="white"/>
<path d="M152.633 222.445V8.8056H249.842V222.445H152.633Z" stroke="white"/>
<path d="M162.321 210.179V20.6506H238.779V210.179H162.321Z" stroke="white"/>
<rect x="65.9863" y="255.495" width="367.718" height="41.854" rx="20.927" stroke="white"/>
<circle cx="103.354" cy="276.422" r="19.4322" stroke="white"/>
<circle cx="102.359" cy="276.422" r="6.72654" stroke="white"/>
<circle cx="559.126" cy="265.433" r="5.33333" stroke="white"/>
<circle cx="161.653" cy="276.422" r="19.4322" stroke="white"/>
<circle cx="160.652" cy="276.422" r="6.72654" stroke="white"/>
<circle cx="219.95" cy="276.422" r="19.4322" stroke="white"/>
<circle cx="218.944" cy="276.422" r="6.72654" stroke="white"/>
<circle cx="278.249" cy="276.422" r="19.4322" stroke="white"/>
<circle cx="277.248" cy="276.422" r="6.72654" stroke="white"/>
<circle cx="336.54" cy="276.423" r="19.4322" stroke="white"/>
<circle cx="335.54" cy="276.422" r="6.72654" stroke="white"/>
<circle cx="394.844" cy="276.422" r="19.4322" stroke="white"/>
<circle cx="394.844" cy="276.422" r="6.72654" stroke="white"/>
<path d="M429.971 264.465L370.179 194.21H347.513M69.7422 264.465L129.534 194.21H152.148" stroke="white"/>
<path d="M336.507 194.254H260.758" stroke="white"/>
<path d="M238.07 194.254H162.32" stroke="white"/>
<path d="M191.002 245.276L197.092 222.591" stroke="white"/>
<path d="M200.002 209.986L202.833 201.103" stroke="white"/>
<path d="M249.877 246.807V222.724" stroke="white"/>
<path d="M319.444 248.008L311.346 222.724" stroke="white"/>
<path d="M307.562 210.082L304.914 201.816" stroke="white"/>
<path d="M381.708 246.377L354.387 201.816" stroke="white"/>
<path d="M336.776 62.7075V20.6511H260.32V210.18H336.694C336.694 179.037 336.694 180.387 336.694 149.244" stroke="white"/>
<path d="M347.221 56.9954V8.8056H249.861V222.446H347.116V155.205" stroke="white"/>
</svg>
