<svg width="692" height="320" viewBox="0 0 692 320" fill="none" xmlns="http://www.w3.org/2000/svg">
<g clip-path="url(#clip0_2147_269)">
<path d="M219.192 283.375L211.072 283.377L211.069 270.926L205.114 270.928L205.113 264.973L211.067 264.971L211.065 257.393L205.111 257.394L205.109 250.898L211.064 250.897L211.056 223.288C225.131 223.285 249.49 219.489 249.496 240.06C249.5 256.517 229.291 258.471 219.185 257.391L219.187 264.969L235.969 264.965L235.97 270.92L219.189 270.924L219.192 283.375Z" stroke="white"/>
<path d="M132.187 284.369L124.067 284.371L124.064 271.92L118.109 271.922L118.108 265.967L124.062 265.966L124.06 258.387L118.106 258.388L118.104 251.892L124.059 251.891L124.051 224.283C138.126 224.279 162.486 220.483 162.491 241.054C162.495 257.511 142.286 259.465 132.18 258.385L132.182 265.963L148.964 265.959L148.965 271.914L132.184 271.918L132.187 284.369Z" stroke="white"/>
<path d="M219.185 250.895L219.18 229.241C226.578 228.118 241.375 228.709 241.377 240.062C241.38 251.415 226.584 252.014 219.185 250.895Z" stroke="white"/>
<path d="M132.181 251.889L132.175 230.235C139.573 229.112 154.37 229.703 154.373 241.056C154.376 252.41 139.579 253.008 132.181 251.889Z" stroke="white"/>
<path d="M196.257 199.353C183.339 206.867 173.532 218.751 168.605 232.86C163.678 246.97 163.956 262.375 169.388 276.298C174.819 290.22 185.048 301.743 198.228 308.788C211.408 315.832 226.672 317.935 241.266 314.716C255.86 311.497 268.823 303.169 277.817 291.233C286.81 279.298 291.243 264.541 290.314 249.625C289.385 234.71 283.156 220.617 272.751 209.889C262.346 199.162 248.45 192.506 233.569 191.123" stroke="white"/>
<circle cx="227.101" cy="254.187" r="48.6667" stroke="white"/>
<circle cx="584.933" cy="202.67" r="16" stroke="white"/>
<circle cx="604.933" cy="204.004" r="16" stroke="white"/>
<path d="M174.647 219.795C167.453 213.672 158.633 209.774 149.262 208.578C139.89 207.383 130.374 208.94 121.873 213.061C113.372 217.182 106.254 223.688 101.388 231.785C96.5215 239.882 94.1172 249.221 94.4682 258.662C94.8191 268.102 97.9102 277.237 103.364 284.95C108.818 292.664 116.4 298.623 125.183 302.102C133.967 305.58 143.573 306.426 152.829 304.538C162.086 302.65 170.592 298.108 177.311 291.467" stroke="white"/>
<path d="M138.398 193.65C128.291 194.303 118.493 197.395 109.842 202.663C101.192 207.931 93.9469 215.216 88.7282 223.896C83.5095 232.577 80.4724 242.392 79.8769 252.503C79.2815 262.613 81.1456 272.718 85.3094 281.95C89.4732 291.183 95.8128 299.269 103.785 305.515C111.758 311.762 121.125 315.983 131.086 317.817C141.046 319.651 151.303 319.044 160.978 316.047C170.652 313.051 179.456 307.754 186.636 300.61" stroke="white"/>
<path d="M183.513 208.862C181.315 206.953 178.986 205.201 176.544 203.616" stroke="white"/>
<path d="M399.102 51.3334L436.435 52.8536C440.435 53.298 448.435 56.4536 448.435 65.5202C448.435 74.5869 446.213 133.298 445.102 161.52" stroke="white"/>
<path d="M265.91 141.156L257.346 143.307L254.048 130.175L247.767 131.753L246.19 125.472L252.47 123.895L250.463 115.902L244.182 117.479L242.461 110.628L248.742 109.051L241.428 79.9326C256.273 76.2042 280.961 65.7545 286.411 87.4503C290.77 104.807 269.971 112.216 259.027 113.751L261.034 121.744L278.733 117.299L280.311 123.579L262.612 128.024L265.91 141.156Z" stroke="white"/>
<path d="M257.307 106.9L251.571 84.0621C259.076 80.9193 274.84 77.6273 277.847 89.6015C280.855 101.576 265.407 106.123 257.307 106.9Z" stroke="white"/>
<circle cx="263.92" cy="106.715" r="51.2146" stroke="white"/>
<rect x="109.099" y="61.6504" width="285.642" height="153.301" rx="13.3333" transform="rotate(-12.4643 109.099 61.6504)" stroke="white"/>
<path d="M145.007 173.824L129.113 96.1189C148.893 93.2932 149.128 74.9266 146.774 66.0965L353.987 20.1799C358.696 37.1337 376.749 40.5873 385.186 40.1948L401.669 115.545C384.716 118.842 383.617 136.541 385.186 144.979L175.619 193.839C171.38 174.53 153.445 172.45 145.007 173.824Z" stroke="white"/>
<rect x="418" y="158.862" width="220.904" height="143.714" rx="13.3333" transform="rotate(4.6158 418 158.862)" stroke="white"/>
<rect x="427.192" y="258.671" width="123.412" height="11.5358" rx="5.76788" transform="rotate(4.6158 427.192 258.671)" stroke="white"/>
<path d="M414.435 206.667L262.951 201.743" stroke="white"/>
</g>
<defs>
<clipPath id="clip0_2147_269">
<rect width="692" height="320" fill="white"/>
</clipPath>
</defs>
</svg>
