<svg width="692" height="320" viewBox="0 0 692 320" fill="none" xmlns="http://www.w3.org/2000/svg">
<g clip-path="url(#clip0_2147_355)">
<path d="M207.673 276.325C209.005 275.845 211.622 274.006 211.431 270.489C211.191 266.091 204.795 266.012 204.476 260.335C204.361 258.276 204.476 256.58 205.467 255.153" stroke="white"/>
<path d="M217.521 276.245C218.801 275.392 221.263 272.711 220.879 268.81C220.399 263.933 213.204 261.774 213.124 254.339C213.06 248.391 216.668 244.079 218.48 242.667" stroke="white"/>
<path d="M199.316 285.524H193.909C191.371 285.816 186.294 288.532 186.294 297.062C186.294 305.591 195.61 308.79 200.268 309.323" stroke="white"/>
<path d="M199.456 289.637H195.162C193.501 289.828 190.179 291.606 190.179 297.187C190.179 302.769 196.275 304.862 199.323 305.211" stroke="white"/>
<path d="M226.657 312.902C222.988 319.355 217.59 319.147 214.281 319.147C210.971 319.147 205.573 319.355 201.905 312.902C198.236 306.449 199.353 300.463 199.353 297.785V280.993H229.208V297.785C229.208 300.463 230.325 306.449 226.657 312.902Z" stroke="white"/>
<path d="M422.959 318.881C269.874 318.881 206.115 318.881 53.0293 318.881" stroke="white"/>
<path d="M295.34 228.782L330.959 178.666M311.812 131.097L334.592 95.8916M268.291 95.8916L251.626 116.666" stroke="white"/>
<path d="M451.787 209.718L436.69 231.903M393.419 193.592L423.94 149.042" stroke="white"/>
<path d="M251.626 69.9998C255.269 73.866 264.334 80.892 277.285 80.6917C290.236 80.4914 300.008 73.5349 302.706 70.9482M298.502 66.8728C301.24 69.3655 305.617 75.1169 314.94 75.3205C323.796 75.5139 331.598 69.9405 333.868 59.6118C335.135 60.4256 336.959 62.6665 340.293 62.6665C342.713 62.6665 344.779 61.9471 346.293 60.6665" stroke="white"/>
<path d="M239.629 268.52V4H359.989V268.52H239.629Z" stroke="white"/>
<path d="M360.027 268.52V4H480.387V194.894V268.52H360.027Z" stroke="white"/>
<path d="M372.96 253.333V18.6666H467.627V253.333H372.96Z" stroke="white"/>
<path d="M251.627 253.333V18.6666H346.294V253.333H251.627Z" stroke="white"/>
<path d="M372.96 51.333C374.434 52.5878 376.894 54.8364 383.896 54.8364C390.898 54.8364 396.35 49.3782 398.201 46.649M397.237 44.434C398.786 48.4899 404.767 57.4743 416.292 60.9639C427.817 64.4536 442.178 61.6144 447.917 59.7586C449.62 65.4982 454.265 76.1869 467.627 78.6664" stroke="white"/>
<path d="M420.529 61.9764L400.051 94.8089L419.234 94.0004L397.333 136.26L437.462 85.769H419.75L437.908 61.9532" stroke="white"/>
<path d="M143.506 318.881H125.641L116.171 275.835C114.659 269.491 113.049 254.445 118.707 245.014C124.366 235.583 130.77 232.542 133.264 232.2M133.264 232.2V216.31M133.264 232.2H153.747M133.264 216.31H82.2129L118.707 122.871H143.506M133.264 216.31H153.747M143.505 318.881H161.37L170.84 275.835C172.352 269.491 173.962 254.445 168.304 245.014C162.645 235.583 156.241 232.542 153.747 232.2M153.747 232.2V216.31M153.747 216.31H204.798L168.304 122.871H143.505" stroke="white"/>
<path d="M495.483 326.311C496.639 315.778 498.406 301.505 500.558 286.79M636.461 335.956C642.001 303.943 636.666 243.407 636.461 227.195C636.256 210.984 625.79 197.235 581.465 196.209C537.14 195.183 526.879 207.906 516.415 219.398C510.815 225.546 504.903 257.069 500.558 286.79M500.558 286.79C481.14 283.801 455.417 279.616 438.797 286.79" stroke="white"/>
<path d="M630.414 291.2C620.906 285.698 595.575 276.937 570.317 285.911" stroke="white"/>
<path d="M427.587 335.304C421.872 321.996 415.654 290.945 438.893 286.666C462.168 282.379 464.842 316.323 463.757 335.304" stroke="white"/>
<path d="M554.189 335.43C552.688 320.912 549.533 290.7 569.958 285.994C595.488 280.111 598.761 314.844 593.8 335.43" stroke="white"/>
<path d="M631.821 211.973C628.628 211.713 621.559 214.339 618.822 226.927C615.401 242.663 609.145 279.023 610.416 283.714" stroke="white"/>
</g>
<defs>
<clipPath id="clip0_2147_355">
<rect width="692" height="320" fill="white"/>
</clipPath>
</defs>
</svg>
