<?xml version="1.0" encoding="utf-8"?><svg viewBox="0 0 40 48" xmlns="http://www.w3.org/2000/svg" xmlns:xlink="http://www.w3.org/1999/xlink"><style>:root>svg{display:none}:root>svg:target{display:block}</style><svg viewBox="0 0 32 32" id="arrow_left" xmlns="http://www.w3.org/2000/svg"><path d="M22.4 4 9.807 15.882 22.4 28.008"/></svg><svg viewBox="0 0 32 32" id="arrow_right" xmlns="http://www.w3.org/2000/svg"><path d="m9.6 4 12.593 11.882L9.6 28.008"/></svg><svg viewBox="0 0 40 40" id="clock" xmlns="http://www.w3.org/2000/svg"><path d="M10 6.667h20M10 33.333h20M13.334 6.667v6.666c0 1.05.493 2.037 1.333 2.667l5.334 4 5.333-4a3.331 3.331 0 0 0 1.333-2.667V6.667m0 26.666v-6.666c0-1.05-.493-2.037-1.333-2.667l-5.333-4-5.334 4a3.331 3.331 0 0 0-1.333 2.667v6.666"/></svg><svg viewBox="0 0 40 40" id="close" xmlns="http://www.w3.org/2000/svg"><path d="m6.565 5.15 28.284 28.285-1.414 1.414L5.151 6.565z"/><path d="M5.151 33.435 33.435 5.151l1.415 1.414L6.565 34.85z"/></svg><svg viewBox="0 0 24 24" id="location" xmlns="http://www.w3.org/2000/svg"><path d="M9.116 14.187C5.562 14.655 3 15.96 3 17.5c0 1.933 4.029 3.5 9 3.5s9-1.567 9-3.5c0-1.54-2.562-2.845-6.116-3.313"/><path clip-rule="evenodd" d="M18 7.833C18 4.612 15.314 2 12 2S6 4.612 6 7.833C6 12.208 12 17 12 17s6-4.792 6-9.167Z"/><path d="M13.414 6.586a2 2 0 1 1-2.828 2.828 2 2 0 0 1 2.828-2.828"/></svg><svg viewBox="0 0 24 24" id="mail" xmlns="http://www.w3.org/2000/svg"><path clip-rule="evenodd" d="M3 6.8c0 .6.3 1.1.8 1.5l6 4.1c1.4.9 3.1.9 4.5 0l6-4c.4-.5.7-1 .7-1.6 0-1-.8-1.8-1.8-1.8H4.8C3.8 5 3 5.8 3 6.8Z"/><path d="M3 7v10c0 1.1.9 2 2 2h14c1.1 0 2-.9 2-2V7M3.588 18.412l6.094-6.094m4.678.042 6.051 6.052"/></svg><svg viewBox="0 0 40 48" id="marker" xmlns="http://www.w3.org/2000/svg"><path d="M32 19.915C32 26.495 20 40 20 40S8 26.495 8 19.915 13.373 8 20 8s12 5.335 12 11.915Zm-17.229 0c0 2.867 2.341 5.191 5.229 5.191s5.229-2.324 5.229-5.191-2.341-5.191-5.229-5.191-5.229 2.324-5.229 5.19Z"/></svg><svg viewBox="0 0 24 24" id="phone" xmlns="http://www.w3.org/2000/svg"><path clip-rule="evenodd" d="M10.856 13.144a12.635 12.635 0 0 1-2.638-3.809.749.749 0 0 1 .166-.827l.82-.818c.67-.67.67-1.62.084-2.206L8.114 4.31a2 2 0 0 0-2.828 0l-.652.652c-.74.741-1.05 1.81-.85 2.87.494 2.613 2.012 5.474 4.461 7.923 2.45 2.45 5.31 3.967 7.923 4.461 1.06.2 2.13-.109 2.87-.85l.651-.65a2 2 0 0 0 0-2.829l-1.173-1.173a1.5 1.5 0 0 0-2.12 0l-.904.904a.749.749 0 0 1-.827.166 12.66 12.66 0 0 1-3.809-2.64Z"/></svg><svg viewBox="0 0 40 40" id="plus" xmlns="http://www.w3.org/2000/svg"><path d="M21 0v40h-2V0z"/><path d="M0 19h40v2H0z"/></svg><svg viewBox="0 0 40 40" id="tg" xmlns="http://www.w3.org/2000/svg"><path fill-rule="evenodd" clip-rule="evenodd" d="M2.75 17.637c10.738-4.798 17.898-7.962 21.48-9.49C34.458 3.783 36.584 3.025 37.97 3c.304-.005.986.072 1.426.44.374.31.476.729.524 1.023.05.294.11.963.062 1.487-.554 5.973-2.952 20.47-4.172 27.16-.518 2.831-1.534 3.78-2.518 3.873-2.138.202-3.764-1.45-5.834-2.843-3.242-2.179-5.074-3.536-8.22-5.663-3.636-2.458-1.28-3.808.792-6.016.544-.578 9.968-9.37 10.15-10.168.022-.1.044-.471-.172-.667-.214-.197-.532-.13-.762-.076-.326.075-5.504 3.586-15.536 10.532-1.47 1.035-2.802 1.54-3.994 1.513-1.316-.029-3.846-.762-5.726-1.39-2.306-.768-4.14-1.175-3.98-2.481.082-.68.996-1.376 2.74-2.087Z"/></svg><svg viewBox="0 0 40 40" id="vk" xmlns="http://www.w3.org/2000/svg"><path fill-rule="evenodd" clip-rule="evenodd" d="M20.8 0c9.05 0 13.577 0 16.388 2.812C40 5.623 40 10.149 40 19.2v1.6c0 9.05 0 13.577-2.812 16.388C34.377 40 29.851 40 20.8 40h-1.6c-9.05 0-13.577 0-16.388-2.812C0 34.377 0 29.851 0 20.8v-1.6C0 10.15 0 5.623 2.812 2.812 5.623 0 10.149 0 19.2 0h1.6ZM6.75 12.168c.217 10.4 5.417 16.65 14.533 16.65h.517v-5.95c3.35.333 5.884 2.784 6.9 5.95h4.734c-1.3-4.733-4.718-7.35-6.851-8.35 2.133-1.234 5.134-4.233 5.85-8.3h-4.3c-.933 3.3-3.7 6.3-6.333 6.583v-6.583h-4.3v11.533c-2.667-.666-6.034-3.9-6.184-11.533H6.75Z"/></svg><svg viewBox="0 0 40 40" id="wa" xmlns="http://www.w3.org/2000/svg"><path d="M20 0C8.972 0 0 8.972 0 20c0 3.443.89 6.83 2.577 9.817L.032 38.895a.869.869 0 0 0 1.046 1.08l9.475-2.347A20.013 20.013 0 0 0 20 40c11.028 0 20-8.972 20-20S31.028 0 20 0Zm10.06 27.057c-.427 1.185-2.48 2.266-3.465 2.41-.885.13-2.005.186-3.235-.2a30.09 30.09 0 0 1-2.927-1.069c-5.15-2.196-8.514-7.317-8.771-7.655-.257-.339-2.097-2.75-2.097-5.244 0-2.495 1.326-3.722 1.798-4.23.471-.507 1.027-.634 1.37-.634.342 0 .684.004.984.018.315.016.739-.12 1.155.87.428 1.016 1.455 3.51 1.582 3.766.129.254.214.55.043.888-.17.339-.255.55-.513.846-.257.297-.539.661-.77.89-.257.252-.524.526-.225 1.034.299.508 1.33 2.168 2.856 3.512 1.961 1.727 3.616 2.263 4.129 2.517.513.253.813.21 1.112-.127.3-.34 1.284-1.481 1.625-1.988.342-.507.685-.424 1.156-.254.471.169 2.996 1.395 3.509 1.649.513.253.855.38.984.592.129.21.129 1.226-.3 2.41Z"/></svg><svg viewBox="0 0 40 40" id="yt" xmlns="http://www.w3.org/2000/svg"><path fill-rule="evenodd" clip-rule="evenodd" d="M28.333 4c6.442 0 11.666 5.015 11.666 11.2v9.6c0 6.185-5.224 11.2-11.666 11.2H11.665C5.223 36-.001 30.985-.001 24.8v-9.6C-.001 9.015 5.223 4 11.665 4h16.668ZM14.999 26.4 28.333 20l-13.334-6.4v12.8Z"/></svg></svg>