<svg width="272" height="313" viewBox="0 0 272 313" fill="none" xmlns="http://www.w3.org/2000/svg">
<path d="M83.4224 41.4917L80.9946 41.7345V258.785L83.4224 258.299V41.4917Z" fill="white"/>
<path d="M80.9946 258.785L83.4224 258.299V41.4917L80.9946 41.7345V258.785ZM80.9946 258.785L80.0234 259.271" stroke="white" stroke-width="0.605791"/>
<path d="M210.644 297.145L218.413 294.717V2.40311L210.644 0.703613M210.644 297.145V0.703613M210.644 297.145L55.5039 284.763V13.8141L210.644 0.703613" stroke="white" stroke-width="0.605791"/>
<path d="M210.644 297.145L200.933 287.434M200.933 287.434L201.175 12.5999L198.99 11.8716M200.933 287.434L198.747 288.405M198.99 11.8716L61.0879 22.7969V277.479L198.747 288.405M198.99 11.8716L198.747 288.405" stroke="white" stroke-width="0.605791"/>
<path d="M55.5039 284.763L62.5447 277.723" stroke="white" stroke-width="0.605791"/>
<path d="M194.62 310.498L220.84 301.758V293.989L194.62 302.244M194.62 310.498L34.3809 296.417V289.133M194.62 310.498V302.244M34.3809 289.133L55.5032 284.763M34.3809 289.133L194.62 302.244" stroke="white" stroke-width="0.605791"/>
<path d="M61.0879 277.479L76.1406 260.97M76.1406 260.97L181.267 267.768M76.1406 260.97V39.792M181.267 267.768L198.747 288.405M181.267 267.768V181.336M181.267 148.56V32.7512M181.267 32.7512L198.99 11.8716M181.267 32.7512L76.1406 39.792M76.1406 39.792L61.0879 22.7969" stroke="white" stroke-width="0.605791"/>
<path d="M76.1387 260.97L80.0232 259.27M80.0232 259.27L181.265 265.583M80.0232 259.27V41.7343M80.0232 41.7343L76.3815 40.0348M80.0232 41.7343L181.265 34.4507" stroke="white" stroke-width="0.605791"/>
<path d="M83.4238 258.3L85.6089 258.178M87.794 258.057L181.267 263.641M87.794 258.057V41.249M87.794 258.057L85.6089 258.178M85.6089 258.178V41.249" stroke="white" stroke-width="0.605791"/>
<path d="M182.723 145.647C183.112 144.676 187.255 143.624 189.279 143.219C190.25 142.895 192.289 143.51 192.677 146.618C193.066 149.726 191.706 150.665 190.978 150.988L187.336 152.445C186.122 152.931 185.879 157.058 185.394 163.37C185.005 168.42 186.203 178.747 186.85 183.279C184.908 183.862 182.48 183.845 181.509 183.764C181.509 183.764 181.218 182.259 180.053 170.411C178.596 155.601 182.238 146.861 182.723 145.647Z" stroke="white" stroke-width="0.605791"/>
<path d="M185.956 156.593C186.199 157.806 188.161 158.951 190.492 158.757C193.405 158.514 194.862 156.572 194.862 154.387C194.862 152.639 194.862 144.433 194.862 140.548C194.862 139.253 193.891 136.664 190.006 136.664C186.122 136.664 185.15 139.415 185.15 140.791V144.19" stroke="white" stroke-width="0.605791"/>
</svg>
