<svg width="272" height="313" viewBox="0 0 272 313" fill="none" xmlns="http://www.w3.org/2000/svg">
<g clip-path="url(#clip0_567_5975)">
<path fill-rule="evenodd" clip-rule="evenodd" d="M135.568 31.6985L135.811 277.237L133.383 277.722L133.141 31.2945L135.568 31.6985Z" fill="white"/>
<path fill-rule="evenodd" clip-rule="evenodd" d="M133.383 277.722L135.811 277.237L219.186 288.162L219.186 289.133L133.383 277.722Z" fill="white"/>
<path fill-rule="evenodd" clip-rule="evenodd" d="M135.568 31.6985L133.141 31.2945L218.563 22.4929L218.568 24.2389L135.568 31.6985Z" fill="white"/>
<path fill-rule="evenodd" clip-rule="evenodd" d="M120.557 33.4442L120.562 34.4507L51.8074 40.0348L50.3506 39.5492L120.557 33.4442Z" fill="white"/>
<path fill-rule="evenodd" clip-rule="evenodd" d="M50.3506 39.5492L51.8074 40.0348L52.0501 265.34L50.3506 265.583L50.3506 40.5203L50.3506 39.5492Z" fill="white"/>
<path fill-rule="evenodd" clip-rule="evenodd" d="M50.3506 265.583L52.0501 265.34L121.328 273.595L121.341 274.08L50.3506 265.583Z" fill="white"/>
<path d="M135.568 31.6985L135.811 277.237M135.568 31.6985L133.141 31.2945M135.568 31.6985L218.568 24.2389M135.811 277.237L133.383 277.722M135.811 277.237L219.186 288.162M133.383 277.722L133.141 31.2945M133.383 277.722L131.197 278.936M133.383 277.722L219.186 289.133M133.141 31.2945L218.563 22.4929M133.141 31.2945L131.197 31.5376M219.186 288.162L219.186 289.133M219.186 288.162L218.568 24.2389M219.186 289.133L219.186 290.347M218.563 22.4929L218.568 24.2389M218.563 22.4929L218.568 21.3406M120.557 33.4442L120.562 34.4507M120.557 33.4442L50.3506 39.5492M120.557 33.4442L120.552 31.6985M120.562 34.4507L51.8074 40.0348M120.562 34.4507L121.328 273.595M51.8074 40.0348L50.3506 39.5492M51.8074 40.0348L52.0501 265.34M50.3506 39.5492L48.6511 39.792L48.8939 266.551M50.3506 39.5492L50.3506 40.5203L50.3506 265.583M52.0501 265.34L50.3506 265.583M52.0501 265.34L121.328 273.595M50.3506 265.583L121.341 274.08M50.3506 265.583L48.8939 266.551M121.328 273.595L121.341 274.08M121.341 274.08L121.328 275.537M238.022 0.649755L241.664 2.59174L241.664 309.285L238.022 312.441M238.022 0.649755L238.022 312.441M238.022 0.649755L31.8523 23.7825M238.022 0.649755L229.768 9.44414M238.022 312.441L31.8536 281.607M238.022 312.441L229.768 306.614M31.8536 281.607L31.8523 23.7825M31.8536 281.607L36.9974 278.451M31.8523 23.7825L36.9974 29.3522M229.768 9.44414L229.768 306.614M229.768 9.44414L120.562 20.6123M229.768 9.44414L218.568 21.3406M229.768 306.614L121.341 289.749M229.768 306.614L219.186 292.289M36.9974 278.451L36.9974 29.3522M36.9974 278.451L121.341 289.749M36.9974 278.451L47.1944 267.525M36.9974 29.3522L120.562 20.6123M36.9974 29.3522L47.1944 38.8208M121.341 289.749L129.497 280.15M121.341 289.749L121.341 276.508M120.562 20.6123L129.254 30.1297M120.562 20.6123L120.552 31.6985M129.254 30.1297L218.568 21.3406M129.254 30.1297L129.497 280.15M129.254 30.1297L131.197 31.5376M219.186 292.289L129.497 280.15M219.186 292.289L219.186 290.347M129.497 280.15L131.197 278.936M121.341 276.508L47.1944 267.525M121.341 276.508L121.328 275.537M47.1944 267.525L47.1944 38.8208M47.1944 267.525L48.8939 266.551M47.1944 38.8208L120.552 31.6985M48.8939 266.551L121.328 275.537M131.197 31.5376L131.197 278.936M131.197 278.936L219.186 290.347M221.077 154.539L221.056 149.652C220.967 148.724 221.366 146.887 223.673 146.97C225.98 147.052 226.444 148.695 226.387 149.506L226.606 161.408M221.077 154.539C220.535 154.777 219.432 155.816 219.364 158.067C219.296 160.318 219.316 172.752 219.334 178.688C219.35 179.15 219.652 180.084 220.728 180.123C221.804 180.161 221.836 178.826 221.718 178.154L222.068 163.751M221.077 154.539C221.432 153.994 222.527 153.026 224.068 153.52C225.994 154.136 225.866 158.358 223.334 158.226L222.238 158.122L222.068 163.751M222.068 163.751C223.518 164.289 226.456 164.574 226.606 161.408M226.612 161.685L226.606 161.408" stroke="white" stroke-width="0.605791"/>
</g>
<defs>
<clipPath id="clip0_567_5975">
<rect width="272" height="313" fill="white"/>
</clipPath>
</defs>
</svg>
