<svg width="160" height="60" viewBox="0 0 160 60" fill="none" xmlns="http://www.w3.org/2000/svg">
<rect x="6.00098" y="11" width="30.8333" height="40" stroke="white" stroke-width="4"/>
<path d="M21.418 11.75V25.0417M21.418 49.7917V25.0417M21.418 25.0417H36.543" stroke="white" stroke-width="2"/>
<path d="M50.968 9.2H61.216V11.912H53.92V26H50.968V9.2ZM67.8616 19.52H72.5656L70.2136 12.56L67.8616 19.52ZM71.8216 9.2L77.9176 26H74.7736L73.4536 22.088H66.9736L65.6536 26H62.5816L68.6776 9.2H71.8216ZM79.4215 23.12H79.6615C80.1735 23.12 80.6055 23.008 80.9575 22.784C81.3095 22.56 81.5895 22.152 81.7975 21.56C82.0215 20.968 82.1735 20.168 82.2535 19.16C82.3495 18.152 82.3975 16.864 82.3975 15.296V9.2H94.0615V26H91.1335V12.008H85.2535V16.04C85.2535 17.976 85.1495 19.6 84.9415 20.912C84.7495 22.208 84.4375 23.248 84.0055 24.032C83.5735 24.816 83.0135 25.376 82.3255 25.712C81.6535 26.032 80.8375 26.192 79.8775 26.192H79.4215V23.12ZM98.0065 9.2H108.831V11.912H100.959V15.92H107.943V18.632H100.959V23.288H108.831V26H98.0065V9.2ZM115.046 17.552H118.694C119.558 17.552 120.254 17.288 120.782 16.76C121.31 16.232 121.574 15.544 121.574 14.696C121.574 13.848 121.31 13.16 120.782 12.632C120.254 12.104 119.558 11.84 118.694 11.84H115.046V17.552ZM112.166 26V9.2H118.862C119.71 9.2 120.478 9.336 121.166 9.608C121.854 9.864 122.446 10.232 122.942 10.712C123.454 11.192 123.846 11.776 124.118 12.464C124.39 13.136 124.526 13.88 124.526 14.696C124.526 15.528 124.39 16.28 124.118 16.952C123.846 17.624 123.454 18.2 122.942 18.68C122.446 19.16 121.854 19.536 121.166 19.808C120.478 20.064 119.71 20.192 118.862 20.192H115.046V26H112.166ZM127.444 9.2H138.268V11.912H130.396V15.92H137.38V18.632H130.396V23.288H138.268V26H127.444V9.2ZM150.363 17.552V11.84H146.715C145.835 11.84 145.131 12.104 144.603 12.632C144.075 13.16 143.811 13.848 143.811 14.696C143.811 15.544 144.075 16.232 144.603 16.76C145.131 17.288 145.835 17.552 146.715 17.552H150.363ZM153.219 26H150.363V20.192H147.027L143.259 26H140.043L144.147 19.76C143.139 19.376 142.339 18.744 141.747 17.864C141.171 16.984 140.883 15.928 140.883 14.696C140.883 13.88 141.019 13.136 141.291 12.464C141.563 11.776 141.947 11.192 142.443 10.712C142.939 10.232 143.531 9.864 144.219 9.608C144.923 9.336 145.699 9.2 146.547 9.2H153.219V26Z" fill="white"/>
<path d="M60.0425 52.5119C58.6287 52.5119 57.3368 52.2681 56.1667 51.7806C54.9966 51.2931 53.985 50.6227 53.1318 49.7696C52.2786 48.892 51.6083 47.8682 51.1208 46.6981C50.6576 45.528 50.426 44.2483 50.426 42.8588C50.426 41.4694 50.6576 40.1896 51.1208 39.0195C51.6083 37.8495 52.2786 36.8378 53.1318 35.9847C53.985 35.1071 54.9966 34.4246 56.1667 33.937C57.3368 33.4495 58.6287 33.2057 60.0425 33.2057C61.4564 33.2057 62.7483 33.4495 63.9184 33.937C65.0885 34.4246 66.1001 35.1071 66.9533 35.9847C67.8064 36.8378 68.4646 37.8495 68.9278 39.0195C69.4153 40.1896 69.6591 41.4694 69.6591 42.8588C69.6591 44.2483 69.4153 45.528 68.9278 46.6981C68.4646 47.8682 67.8064 48.892 66.9533 49.7696C66.1001 50.6227 65.0885 51.2931 63.9184 51.7806C62.7483 52.2681 61.4564 52.5119 60.0425 52.5119ZM60.0425 48.6726C60.8226 48.6726 61.5417 48.5264 62.1999 48.2338C62.8824 47.9413 63.4552 47.5391 63.9184 47.0272C64.4059 46.5153 64.7838 45.9059 65.0519 45.199C65.32 44.4677 65.4541 43.6876 65.4541 42.8588C65.4541 42.0056 65.32 41.2256 65.0519 40.5187C64.7838 39.8118 64.4059 39.2024 63.9184 38.6904C63.4552 38.1785 62.8824 37.7763 62.1999 37.4838C61.5417 37.1913 60.8226 37.045 60.0425 37.045C59.2625 37.045 58.5312 37.1913 57.8487 37.4838C57.1905 37.7763 56.6176 38.1785 56.1301 38.6904C55.667 39.2024 55.3013 39.8118 55.0332 40.5187C54.765 41.2256 54.631 42.0056 54.631 42.8588C54.631 43.6876 54.765 44.4677 55.0332 45.199C55.3013 45.9059 55.667 46.5153 56.1301 47.0272C56.6176 47.5391 57.1905 47.9413 57.8487 48.2338C58.5312 48.5264 59.2625 48.6726 60.0425 48.6726ZM80.024 44.3945H77.6107V52H73.5521V33.7176H77.6107V40.7015H80.1337L85.4722 33.7176H90.1159L83.1686 42.4566L90.2621 52H85.4722L80.024 44.3945ZM101.928 52.5119C100.514 52.5119 99.2219 52.2681 98.0518 51.7806C96.8818 51.2931 95.8701 50.6227 95.017 49.7696C94.1638 48.892 93.4934 47.8682 93.0059 46.6981C92.5428 45.528 92.3112 44.2483 92.3112 42.8588C92.3112 41.4694 92.5428 40.1896 93.0059 39.0195C93.4934 37.8495 94.1638 36.8378 95.017 35.9847C95.8701 35.1071 96.8818 34.4246 98.0518 33.937C99.2219 33.4495 100.514 33.2057 101.928 33.2057C103.342 33.2057 104.633 33.4495 105.804 33.937C106.974 34.4246 107.985 35.1071 108.838 35.9847C109.692 36.8378 110.35 37.8495 110.813 39.0195C111.3 40.1896 111.544 41.4694 111.544 42.8588C111.544 44.2483 111.3 45.528 110.813 46.6981C110.35 47.8682 109.692 48.892 108.838 49.7696C107.985 50.6227 106.974 51.2931 105.804 51.7806C104.633 52.2681 103.342 52.5119 101.928 52.5119ZM101.928 48.6726C102.708 48.6726 103.427 48.5264 104.085 48.2338C104.768 47.9413 105.34 47.5391 105.804 47.0272C106.291 46.5153 106.669 45.9059 106.937 45.199C107.205 44.4677 107.339 43.6876 107.339 42.8588C107.339 42.0056 107.205 41.2256 106.937 40.5187C106.669 39.8118 106.291 39.2024 105.804 38.6904C105.34 38.1785 104.768 37.7763 104.085 37.4838C103.427 37.1913 102.708 37.045 101.928 37.045C101.148 37.045 100.416 37.1913 99.7338 37.4838C99.0756 37.7763 98.5028 38.1785 98.0153 38.6904C97.5521 39.2024 97.1865 39.8118 96.9183 40.5187C96.6502 41.2256 96.5161 42.0056 96.5161 42.8588C96.5161 43.6876 96.6502 44.4677 96.9183 45.199C97.1865 45.9059 97.5521 46.5153 98.0153 47.0272C98.5028 47.5391 99.0756 47.9413 99.7338 48.2338C100.416 48.5264 101.148 48.6726 101.928 48.6726ZM131.745 33.7176V52H127.65V44.2117H119.496V52H115.401V33.7176H119.496V40.4821H127.65V33.7176H131.745Z" fill="white"/>
<path d="M137 41.5L143.999 41.436L144 34H145.999L146.098 41.5H153.161V43.5H146V50.7664H144V43.5H136.999L137 41.5Z" fill="white"/>
</svg>
