<svg width="140" height="29" viewBox="0 0 140 29" fill="none" xmlns="http://www.w3.org/2000/svg">
<g clip-path="url(#clip0_526_3496)">
<path d="M2.92402 14.5734C2.80466 8.84786 12.1141 8.84786 11.9948 14.5156C12.0545 17.3494 9.78676 18.7953 7.4594 18.7953C5.13203 18.7953 2.86434 17.4072 2.92402 14.5734ZM2.2079 9.42619C0.716002 10.872 -0.000110252 12.607 -0.000110252 14.5156V27.5281C-0.0597863 29.3788 2.98369 29.321 2.92402 27.5281V20.2989C7.57875 24.0003 15.1576 20.4146 14.9189 14.5156C15.0979 10.2359 11.0996 7.22852 7.22069 7.22852C5.43041 7.34418 3.58045 7.98035 2.2079 9.42619Z" fill="#7C7C7C"/>
<path d="M17.1275 1.44563V20.2416C17.0679 21.5139 18.7388 22.2079 19.6936 21.2826C19.992 20.9934 20.1113 20.7042 20.1113 20.2416V1.44563C20.1113 0.520287 19.3952 0.0576172 18.6194 0.0576172C17.8436 0.115451 17.1275 0.520287 17.1275 1.44563Z" fill="#7C7C7C"/>
<path d="M34.0757 14.4572C34.1354 16.7127 32.7031 18.9104 29.779 18.8526C26.6759 18.9682 25.2436 16.7127 25.3033 14.4572C25.363 12.2595 26.8549 10.004 29.779 10.0618C32.5838 10.004 34.0757 12.2595 34.0757 14.4572ZM24.4082 9.36784C17.8438 15.6139 26.9742 25.5613 34.195 20.2406C34.2547 22.0334 37.1788 22.1491 37.1192 20.2406V14.5729C37.3579 10.2353 33.4789 7.28583 29.5403 7.28583C27.6903 7.228 25.8404 7.86417 24.4082 9.36784Z" fill="#7C7C7C"/>
<path d="M38.9082 11.5663C38.9082 13.7639 40.3404 15.9616 43.2646 15.9038C46.6064 16.3665 43.6226 20.8196 41.7727 17.9858C39.5646 14.7471 37.3566 18.7955 40.4598 20.7618C44.6968 24.2318 50.366 17.928 46.4274 14.2844C45.2935 12.8964 43.5033 13.4169 42.1904 12.5494C40.4598 10.9301 43.8016 8.84808 44.6371 10.8144C47.3225 14.7471 49.8886 7.5179 43.2646 7.1709C43.2049 7.1709 43.2049 7.1709 43.1452 7.1709C40.4001 7.22873 38.9679 9.36858 38.9082 11.5663Z" fill="#7C7C7C"/>
<path d="M54.1852 -0.000307127C51.6192 -0.115974 53.0514 5.89873 52.753 7.2289C52.574 7.2289 52.3353 7.2289 52.0966 7.2289C50.8434 7.17107 49.1128 7.11323 49.1128 8.67474C49.0531 10.2363 50.8434 10.1784 52.0966 10.1206C52.3353 10.1206 52.5143 10.1206 52.6933 10.1206V20.2993C52.6337 20.9933 53.3498 21.803 54.1256 21.7452C54.961 21.803 55.6771 20.9933 55.6175 20.2993V10.0628H57.7061C58.6609 10.0628 59.1384 9.36875 59.1384 8.61691C59.1384 7.86507 58.6609 7.17107 57.7061 7.17107H55.6175C55.3191 5.95656 56.7513 -0.000307127 54.3046 -0.000307127C54.2449 -0.000307127 54.2449 -0.000307127 54.1852 -0.000307127Z" fill="#7C7C7C"/>
<path d="M60.8104 8.61669C60.9298 8.96369 60.3927 21.5714 61.2282 21.2823C62.0636 22.2076 63.7942 21.5136 63.7346 20.2413V8.61669C63.7346 7.69135 63.0185 7.22868 62.2427 7.22868C61.5862 7.22868 60.8104 7.69135 60.8104 8.61669ZM62.362 1.44531C61.4072 1.44531 60.9298 2.13932 60.9298 2.89115C60.9298 3.64299 61.4072 4.337 62.362 4.337C63.3168 4.39483 63.7942 3.64299 63.7942 2.89115C63.7346 2.13932 63.2572 1.44531 62.362 1.44531Z" fill="#7C7C7C"/>
<path d="M66.1207 1.44563V20.2416C66.061 21.5139 67.7319 22.2079 68.6868 21.2826C68.9851 20.9934 69.1045 20.7042 69.1045 20.2416V1.44563C69.1045 0.520287 68.3884 0.0576172 67.6126 0.0576172C66.8368 0.115451 66.1207 0.520287 66.1207 1.44563Z" fill="#7C7C7C"/>
<path d="M71.3721 8.61669V20.2413C71.3721 21.0509 72.0285 21.6871 72.864 21.6871C73.6398 21.6871 74.3559 21.0509 74.2962 20.2413V8.61669C74.2962 7.69135 73.5801 7.22868 72.8043 7.22868C72.0882 7.22868 71.3721 7.69135 71.3721 8.61669ZM72.864 1.44531C71.9092 1.44531 71.4317 2.13932 71.4317 2.89115C71.4317 3.64299 71.9092 4.337 72.864 4.337C73.8188 4.39483 74.2962 3.64299 74.2962 2.89115C74.2962 2.13932 73.8188 1.44531 72.864 1.44531Z" fill="#7C7C7C"/>
<path d="M76.5051 20.2413C76.4454 22.092 79.5486 22.092 79.4292 20.2413V14.4579C79.3099 8.73241 88.6193 8.79024 88.5 14.4579V20.2413C88.4403 22.092 91.4838 22.092 91.4241 20.2413C91.7822 14.5736 91.7225 7.40223 83.9049 7.1709C76.2664 7.40223 76.2067 14.5158 76.5051 20.2413Z" fill="#7C7C7C"/>
<path d="M118.099 20.2411C118.218 22.1496 115.234 22.0339 115.175 20.2411C107.954 25.6196 98.8233 15.6144 105.388 9.36834C109.804 4.74165 118.397 8.15384 118.099 14.5155V20.2411ZM110.759 18.8531C116.547 19.0266 116.487 10.0045 110.759 10.1202C104.91 9.94668 104.672 19.0266 110.759 18.8531Z" fill="#7C7C7C"/>
<path d="M123.112 20.2408C123.171 22.0915 120.128 22.0915 120.188 20.2408V14.4574C119.233 10.4669 127.647 4.16304 129.199 8.61623C129.199 9.31024 128.542 10.1199 127.707 10.0621C122.157 9.94641 123.171 16.7708 123.112 20.2408Z" fill="#7C7C7C"/>
<path d="M138.568 7.22797C140.478 7.17014 140.478 10.1197 138.568 10.0618H136.479V20.2405C136.479 20.9346 135.823 21.7442 134.987 21.6864C134.212 21.7442 133.496 20.9346 133.555 20.2405V10.0618C132.362 10.0618 129.915 10.4088 129.975 8.61598C129.915 6.82314 132.421 7.22797 133.555 7.22797C133.913 5.8978 132.421 -0.116906 134.987 -0.00123821C137.554 -0.174739 136.121 5.8978 136.479 7.22797H138.568Z" fill="#7C7C7C"/>
<path d="M20.6478 28.8008H20.1107L19.2156 25.7935L18.9769 24.926C18.9172 25.2152 18.7382 25.7935 18.7382 25.7935L17.843 28.8008H17.3059L16.0527 24.3477H16.6495L17.3656 27.1237C17.485 27.4707 17.5446 27.8755 17.6043 28.2225C17.664 27.8755 17.7237 27.4707 17.843 27.1237L18.6785 24.4055H19.2752L20.1107 27.1815C20.2301 27.5285 20.2897 27.8177 20.3494 28.2803C20.4091 27.9912 20.4688 27.6442 20.5881 27.1815L21.3042 24.4055H21.901L20.6478 28.8008Z" fill="#7C7C7C"/>
<path d="M34.3737 28.8018H31.8076V24.3486H34.3737V24.8113H32.3447V26.2571H34.2543V26.7198H32.3447V28.3392H34.3737V28.8018Z" fill="#7C7C7C"/>
<path d="M44.6367 24.3486H45.9496C46.5464 24.3486 47.0238 24.4643 47.3221 24.6378C47.6205 24.8113 47.7399 25.1005 47.7399 25.4475C47.7399 25.7366 47.6205 25.9101 47.5012 26.0836C47.3818 26.2571 47.1431 26.3728 46.8447 26.4306V26.4885C47.5608 26.6041 47.9189 26.9511 47.9189 27.5873C47.9189 27.9922 47.7995 28.2813 47.5012 28.5127C47.2028 28.744 46.8447 28.8597 46.3673 28.8597H44.6367V24.3486ZM45.1141 26.2571H45.9496C46.3076 26.2571 46.606 26.1993 46.7851 26.0836C46.9044 25.968 47.0238 25.7366 47.0238 25.5053C47.0238 25.274 46.9044 25.1005 46.7254 24.927C46.5464 24.8113 46.248 24.7535 45.8899 24.7535H45.1141V26.2571ZM45.1141 26.7198V28.397H46.0689C46.427 28.397 46.7254 28.3392 46.9044 28.1657C47.0834 28.05 47.2028 27.8187 47.2028 27.5295C47.2028 27.2403 47.0834 27.0668 46.9044 26.9511C46.7254 26.8355 46.427 26.7776 46.0689 26.7776L45.1141 26.7198Z" fill="#7C7C7C"/>
<path d="M71.551 27.6444C71.551 27.9914 71.4316 28.3384 71.1332 28.5697C70.8349 28.8011 70.4768 28.9167 69.9397 28.9167C69.4026 28.9167 68.9849 28.8589 68.6865 28.7432V28.2227C68.8656 28.3384 69.0446 28.3384 69.2833 28.3962C69.522 28.4541 69.701 28.4541 69.9397 28.4541C70.2978 28.4541 70.5365 28.3962 70.7752 28.2806C70.9542 28.1649 71.0736 27.9336 71.0736 27.7022C71.0736 27.5866 71.0139 27.4131 70.9542 27.3552C70.8945 27.2396 70.7752 27.1817 70.5962 27.0661C70.4768 26.9504 70.2381 26.8926 69.9397 26.7769C69.522 26.6612 69.2236 26.4299 69.0446 26.2564C68.8656 26.0829 68.7462 25.7937 68.7462 25.4467C68.7462 25.0997 68.8656 24.8684 69.1043 24.637C69.4026 24.4635 69.701 24.29 70.1784 24.29C70.6558 24.29 71.0139 24.4057 71.4316 24.5214L71.3123 24.984C70.9542 24.8684 70.5365 24.7527 70.1784 24.7527C69.88 24.7527 69.6413 24.8105 69.522 24.9262C69.4026 25.0419 69.2833 25.2154 69.2833 25.4467C69.2833 25.5624 69.343 25.7359 69.4026 25.7937C69.4623 25.9094 69.522 25.9672 69.701 26.0829C69.8204 26.1985 70.0591 26.2564 70.2978 26.3721C70.7752 26.5456 71.1332 26.7191 71.3123 26.9504C71.4316 27.0661 71.551 27.2974 71.551 27.6444Z" fill="#7C7C7C"/>
<path d="M83.0689 28.8018H82.5318V24.8113H81.0996V24.3486H84.5608V24.8113H83.1286L83.0689 28.8018Z" fill="#7C7C7C"/>
<path d="M97.9281 24.3486V27.2403C97.9281 27.7608 97.8088 28.1657 97.4507 28.4548C97.0927 28.744 96.6749 28.8597 96.1378 28.8597C95.5411 28.8597 95.1233 28.744 94.825 28.4548C94.5266 28.1657 94.4072 27.7608 94.4072 27.2403V24.3486H94.9443V27.2982C94.9443 27.6452 95.0637 27.9343 95.3024 28.1078C95.4814 28.2813 95.8395 28.397 96.1975 28.397C96.5556 28.397 96.8539 28.2813 97.0926 28.1078C97.2717 27.9343 97.4507 27.6452 97.4507 27.2403V24.3486H97.9281Z" fill="#7C7C7C"/>
<path d="M112.072 26.4877C112.072 27.2396 111.893 27.8179 111.475 28.1649C111.057 28.5119 110.461 28.7432 109.685 28.7432H108.372V24.29H109.745C110.461 24.29 111.057 24.4635 111.416 24.8684C111.833 25.2732 112.072 25.7937 112.072 26.4877ZM111.475 26.5456C111.475 25.9672 111.356 25.5045 111.057 25.2154C110.759 24.9262 110.282 24.7527 109.685 24.7527H108.909V28.3384H109.566C110.162 28.3384 110.699 28.2227 110.998 27.8757C111.356 27.5866 111.475 27.1239 111.475 26.5456Z" fill="#7C7C7C"/>
<path d="M122.276 28.8018V24.3486H122.813V28.8018H122.276Z" fill="#7C7C7C"/>
<path d="M137.314 26.5458C137.314 27.2398 137.135 27.8181 136.718 28.2229C136.36 28.6278 135.822 28.8013 135.166 28.8013C134.51 28.8013 133.973 28.6278 133.555 28.2229C133.197 27.8181 132.958 27.2398 132.958 26.4879C132.958 25.7361 133.137 25.1578 133.555 24.8108C133.913 24.4059 134.45 24.2324 135.166 24.2324C135.882 24.2324 136.36 24.4059 136.718 24.8108C137.135 25.2734 137.314 25.7939 137.314 26.5458ZM133.614 26.5458C133.614 27.1241 133.734 27.6446 133.972 27.9338C134.271 28.2808 134.629 28.3964 135.106 28.3964C135.643 28.3964 136.001 28.2808 136.24 27.9338C136.479 27.5868 136.598 27.1241 136.598 26.5458C136.598 25.9674 136.479 25.4469 136.24 25.2156C136.001 24.9264 135.643 24.7529 135.106 24.7529C134.569 24.7529 134.211 24.8686 133.972 25.2156C133.793 25.5048 133.614 25.9674 133.614 26.5458Z" fill="#7C7C7C"/>
</g>
<defs>
<clipPath id="clip0_526_3496">
<rect width="140" height="28.9168" fill="white"/>
</clipPath>
</defs>
</svg>
