<svg width="140" height="140" viewBox="0 0 140 140" fill="none" xmlns="http://www.w3.org/2000/svg">
<path d="M18.0787 43.9692V95.6313H18.0855L18.0845 96.0317C18.0843 96.2479 18.1438 96.4605 18.2564 96.645C18.369 96.8294 18.531 96.979 18.7232 97.0776L69.3326 123.043L69.3365 123.045L69.4566 123.1L69.4761 123.108L69.4957 123.118L69.5963 123.165L69.6031 123.167C69.7285 123.22 69.8635 123.248 69.9996 123.248C70.1357 123.248 70.2706 123.22 70.3961 123.167L70.4029 123.165L70.5035 123.118L70.523 123.108L70.5425 123.1C70.5834 123.084 70.6238 123.066 70.6627 123.045L70.6666 123.043L121.276 97.0776H121.277C121.47 96.9793 121.632 96.8295 121.745 96.645C121.858 96.4605 121.918 96.248 121.918 96.0317V95.6313H121.924V43.9741L121.907 43.7915C121.896 43.7314 121.882 43.6717 121.862 43.6138L121.86 43.6089C121.814 43.4665 121.741 43.3341 121.645 43.2192L121.592 43.1558C121.48 43.0369 121.345 42.941 121.194 42.8774L121.179 42.8716L121.166 42.8647L95.9058 29.8989L70.5308 16.8833C70.3655 16.7988 70.1823 16.7554 69.9966 16.7554C69.8107 16.7554 69.627 16.7996 69.4615 16.8843L69.4605 16.8833L44.0865 29.8989L18.8414 42.8569L18.8121 42.8706C18.5523 42.9788 18.3397 43.1763 18.2125 43.4272H18.2115C18.1412 43.5651 18.0998 43.7163 18.0884 43.8706C18.0878 43.8914 18.0862 43.9097 18.0845 43.9243C18.0825 43.942 18.0808 43.9585 18.0797 43.9663C18.0795 43.9673 18.0788 43.9684 18.0787 43.9692ZM18.0787 43.9692C18.0782 43.9723 18.078 43.9743 18.0777 43.9761V43.978C18.0778 43.9769 18.0785 43.9738 18.0787 43.9692ZM118.981 46.1909L102.684 54.5503L102.467 54.6616V65.2612H102.461V65.6606C102.46 65.8545 102.413 66.0455 102.321 66.2163C102.229 66.3871 102.097 66.5329 101.935 66.6401C101.774 66.7473 101.587 66.8124 101.394 66.8306C101.201 66.8486 101.007 66.8187 100.829 66.7437L96.6548 64.9888L96.3785 64.8726L96.189 65.105L90.0181 72.7007L89.9986 72.7261C89.8557 72.9336 89.6508 73.0909 89.4127 73.1733C89.1746 73.2557 88.9159 73.2597 88.6754 73.1851C88.4348 73.1103 88.2242 72.9601 88.0748 72.7573C87.9253 72.5543 87.8443 72.3082 87.8443 72.0562V62.1606L87.2613 62.4595L71.397 70.5991L71.1793 70.7104V120.138L71.7623 119.839L119.346 95.4282L119.564 95.3169V45.8921L118.981 46.1909ZM99.525 56.1675L95.9068 58.0269L90.4283 60.8374L90.2105 60.9487V61.1929L90.2095 67.6108V68.7378L90.9195 67.8638L95.1099 62.7065C95.2765 62.5017 95.5076 62.3592 95.7652 62.3013C96.0226 62.2435 96.2919 62.2735 96.5298 62.3872L96.5386 62.3921L96.5484 62.396L99.5523 63.6548L100.107 63.8872V55.8677L99.525 56.1675ZM38.0982 35.6147L22.5211 43.6079L21.8277 43.9634L22.5211 44.3188L45.1617 55.9341L69.817 68.5835L69.9996 68.6763L70.1822 68.5835L85.7574 60.5903L86.4507 60.2339L85.7574 59.8784L38.4634 35.6147L38.2808 35.521L38.0982 35.6147ZM50.7857 29.106L45.1617 31.9917L41.5523 33.8442L40.8589 34.2007L41.5523 34.5562L88.8404 58.8169L89.024 58.9116L89.2076 58.8159L98.3677 54.0386L99.0533 53.6802L98.3648 53.3276L51.1509 29.105L50.9683 29.0122L50.7857 29.106ZM69.817 19.3423L54.2379 27.3354L53.5445 27.6919L54.2379 28.0474L101.536 52.3091L101.718 52.4028L101.901 52.3091L117.477 44.3188L118.171 43.9634L117.477 43.6079L94.8365 31.9917L70.1822 19.3423L69.9996 19.2485L69.817 19.3423ZM68.8218 70.7163L68.6041 70.605L44.0982 58.0269L21.0201 46.189L20.4371 45.8901V46.5444L20.4439 95.0776V95.3218L20.6607 95.4331L68.2388 119.845L68.8218 120.144V70.7163Z" fill="none" stroke="#fff" stroke-width="0.8"/>
</svg>
