<svg width="40" height="40" viewBox="0 0 40 40" fill="none" xmlns="http://www.w3.org/2000/svg">
<path fill-rule="evenodd" clip-rule="evenodd" d="M20.7998 0C29.8508 0 34.3767 -0.000256538 37.1885 2.81152C40.0003 5.62328 40 10.1492 40 19.2002V20.7998C40 29.8508 40.0003 34.3767 37.1885 37.1885C34.3767 40.0003 29.8508 40 20.7998 40H19.2002C10.1492 40 5.62328 40.0003 2.81152 37.1885C-0.000256538 34.3767 0 29.8508 0 20.7998V19.2002C0 10.1492 -0.000256538 5.62328 2.81152 2.81152C5.62328 -0.000256538 10.1492 0 19.2002 0H20.7998ZM6.75 12.168C6.96666 22.568 12.1666 28.8184 21.2832 28.8184H21.7998V22.8682C25.1498 23.2014 27.6836 25.6516 28.7002 28.8184H33.4336C32.1336 24.085 28.7164 21.4678 26.583 20.4678C28.7164 19.2344 31.7168 16.2346 32.4336 12.168H28.1328C27.1996 15.4679 24.4332 18.4676 21.7998 18.751V12.168H17.5V23.7012C14.8333 23.0346 11.4664 19.8013 11.3164 12.168H6.75Z" fill="white"/>
</svg>
